<svg xmlns="http://www.w3.org/2000/svg" viewBox="0 0 32 32" width="32" height="32">
    <defs>
        <style>
            .shield { fill: #1A2A3A; }
            .cloud { fill: #2DD4BF; }
            .bolt { fill: #FFFFFF; }
        </style>
    </defs>
    
    <!-- Shield Base -->
    <path class="shield" d="M16 2.5L2 7v8c0 8 12 14.5 14 14.5s14-6.5 14-14.5V7L16 2.5z"/>
    
    <!-- Cloud Symbol -->
    <path class="cloud" d="M16 12a6 6 0 00-6 6 4 4 0 014-4h2a4 4 0 014 4 4 4 0 01-4 4 6 6 0 006-6 6 6 0 00-6-6z"/>
    
    <!-- Lightning Bolt -->
    <path class="bolt" d="M19 16h-3l2-4-5 1 1-3 5 3z"/>
</svg>